<svg xmlns="http://www.w3.org/2000/svg" xmlns:xlink="http://www.w3.org/1999/xlink" version="1.1" x="0px" y="0px" viewBox="0 0 512 640" enable-background="new 0 0 512 512" xml:space="preserve"><path d="M512,302.996l-28.953-25.438l2.484-38.477l-34.562-17.086l-7.562-37.805l-37.797-7.555l-17.078-34.562  l-38.484,2.484l-25.438-28.961l-36.531,12.352l-32.062-21.383l-32.078,21.391l-36.531-12.359l-25.438,28.961l-38.469-2.484  l-17.094,34.562l-37.797,7.555l-7.562,37.805l-34.562,17.086l2.484,38.477L0,302.996l12.75,37.688l243.266,64.75l243.25-64.75  L512,302.996z M463.328,251.902l-1.406,21.719l-109.078,45.797c-1.219-2.156-2.516-4.266-3.875-6.328l92.766-71.867L463.328,251.902  z M256.688,284.637c23.797,0,46.172,9.266,63,26.109c13.484,13.469,22.109,30.516,25,49L256,383.34l-87.391-23.188  c2.844-18.641,11.5-35.844,25.078-49.406C210.516,293.902,232.891,284.637,256.688,284.637z M401.641,197.598l23.641,4.727  l4.266,21.344l-93.969,72.812c-1.688-1.734-3.438-3.406-5.25-5.016L401.641,197.598z M351.641,165.832l24.062-1.555l9.641,19.508  l-72.203,95.023c-2.047-1.219-4.125-2.375-6.266-3.469L351.641,165.832z M295.125,148.098l22.844-7.734l14.359,16.344  l-45.297,110.82c-2.25-0.641-4.531-1.203-6.844-1.703L295.125,148.098z M256.016,132.207l18.078,12.062L259,263.34  c-0.781-0.016-1.547-0.031-2.312-0.031c-1.578,0-3.125,0.031-4.688,0.094l-16.078-117.805L256.016,132.207z M194.047,140.363  l20.594,6.969l16.234,119.008c-2.266,0.562-4.516,1.156-6.719,1.844l-46.047-109.68L194.047,140.363z M136.312,164.285l21.672,1.398  l46.484,110.719c-2.047,1.109-4.062,2.281-6.031,3.5l-72.828-93.977L136.312,164.285z M86.734,202.324l21.297-4.258l73.453,94.805  c-1.703,1.594-3.375,3.25-4.984,4.938L82,226.012L86.734,202.324z M68.156,242.285l95.219,72.367c-1.266,2-2.469,4.031-3.609,6.125  L50.25,276.027l-1.562-24.125L68.156,242.285z M24.781,309.652l16.297-14.344l110.297,45.094c-1.453,4.594-2.609,9.344-3.469,14.188  L29.297,323.027L24.781,309.652z M482.719,323.027l-117.328,31.219c-0.922-5.25-2.234-10.375-3.891-15.328l107.641-45.172  l18.109,15.891L482.719,323.027z"/><text x="0" y="527" fill="#000000" font-size="5px" font-weight="bold" font-family="'Helvetica Neue', Helvetica, Arial-Unicode, Arial, Sans-serif">Created by lastspark</text><text x="0" y="532" fill="#000000" font-size="5px" font-weight="bold" font-family="'Helvetica Neue', Helvetica, Arial-Unicode, Arial, Sans-serif">from the Noun Project</text></svg>